<svg width="16.000000" height="16.000000" viewBox="0 0 16 16" fill="none" xmlns="http://www.w3.org/2000/svg" xmlns:xlink="http://www.w3.org/1999/xlink">
	<desc>
			Created with Pixso.
	</desc>
	<defs>
		<clipPath id="clip31_1992">
			<rect id="icon/star" width="16.000000" height="16.000000" fill="white" fill-opacity="0"/>
		</clipPath>
	</defs>
	<g clip-path="url(#clip31_1992)">
		<path id="Star 2" d="M7.55859 0.838196L5.66992 4.41705C5.59766 4.55414 5.46484 4.64996 5.3125 4.67639L1.32617 5.36627C0.929688 5.43481 0.771484 5.91913 1.05273 6.20746L3.87305 9.10919C3.98047 9.2204 4.03125 9.37543 4.00781 9.52887L3.43164 13.5341C3.375 13.9321 3.78711 14.2314 4.14844 14.054L7.7793 12.2685C7.91797 12.2001 8.08203 12.2001 8.2207 12.2685L11.8516 14.054C12.2129 14.2314 12.625 13.9321 12.5684 13.5341L11.9922 9.52887C11.9688 9.37543 12.0195 9.2204 12.127 9.10919L14.9473 6.20746C15.2285 5.91913 15.0703 5.43481 14.6738 5.36627L10.6875 4.67639C10.5352 4.64996 10.4023 4.55414 10.3301 4.41705L8.44141 0.838196C8.25391 0.482605 7.74609 0.482605 7.55859 0.838196Z" fill="#FFC531" fill-opacity="1.000000" fill-rule="evenodd"/>
		<path id="Star 2" d="M5.66992 4.41705C5.59766 4.55414 5.46484 4.64996 5.3125 4.67639L1.32617 5.36627C0.929688 5.43481 0.771484 5.91913 1.05273 6.20746L3.87305 9.10919C3.98047 9.2204 4.03125 9.37543 4.00781 9.52887L3.43164 13.5341C3.375 13.9321 3.78711 14.2314 4.14844 14.054L7.7793 12.2685C7.91797 12.2001 8.08203 12.2001 8.2207 12.2685L11.8516 14.054C12.2129 14.2314 12.625 13.9321 12.5684 13.5341L11.9922 9.52887C11.9688 9.37543 12.0195 9.2204 12.127 9.10919L14.9473 6.20746C15.2285 5.91913 15.0703 5.43481 14.6738 5.36627L10.6875 4.67639C10.5352 4.64996 10.4023 4.55414 10.3301 4.41705L8.44141 0.838196C8.25391 0.482605 7.74609 0.482605 7.55859 0.838196L5.66992 4.41705ZM6.73047 4.97699C6.48438 5.44324 6.03711 5.76898 5.51758 5.85883L2.83789 6.32251L4.73242 8.27283C5.09961 8.65088 5.27148 9.17792 5.19727 9.69965L4.80859 12.3917L7.25 11.1917C7.72266 10.959 8.27734 10.959 8.75 11.1917L11.1914 12.3917L10.8027 9.69965C10.7285 9.17792 10.9004 8.65088 11.2676 8.27283L13.1621 6.32251L10.4824 5.85883C9.96289 5.76898 9.51562 5.44324 9.26953 4.97699L8 2.57159L6.73047 4.97699Z" fill="#FFC531" fill-opacity="1.000000" fill-rule="evenodd"/>
	</g>
</svg>
