<svg width="26.000000" height="26.000000" viewBox="0 0 26 26" fill="none" xmlns="http://www.w3.org/2000/svg" xmlns:xlink="http://www.w3.org/1999/xlink">
	<desc>
			Created with Pixso.
	</desc>
	<defs>
		<clipPath id="clip31_1996">
			<rect id="heart" width="26.000000" height="26.000000" fill="white" fill-opacity="0"/>
		</clipPath>
	</defs>
	<rect id="heart" width="26.000000" height="26.000000" fill="#FFFFFF" fill-opacity="0"/>
	<g clip-path="url(#clip31_1996)">
		<path id="Vector" d="M20.6426 3.70184C19.9199 3.40228 19.1445 3.24805 18.3633 3.24805C17.5801 3.24805 16.8047 3.40228 16.082 3.70184C15.3594 4.00146 14.7012 4.44061 14.1484 4.9942L13 6.14252L11.8516 4.9942C10.7344 3.87653 9.21875 3.2486 7.63672 3.2486C6.05664 3.2486 4.54102 3.87653 3.42383 4.9942C2.30469 6.11188 1.67773 7.62775 1.67773 9.20837C1.67773 10.789 2.30469 12.3049 3.42383 13.4225L4.57227 14.5709L13 22.9992L21.4277 14.5709L22.5762 13.4225C23.1309 12.8692 23.5703 12.2122 23.8691 11.4891C24.168 10.7661 24.3223 9.99103 24.3223 9.20837C24.3223 8.42566 24.168 7.65063 23.8691 6.92755C23.5703 6.20447 23.1309 5.54749 22.5762 4.9942C22.0234 4.44061 21.3672 4.00146 20.6426 3.70184Z" stroke="#11101C" stroke-opacity="1.000000" stroke-width="2.000000" stroke-linejoin="round"/>
	</g>
</svg>
