<svg width="16.000000" height="16.000000" viewBox="0 0 16 16" fill="none" xmlns="http://www.w3.org/2000/svg" xmlns:xlink="http://www.w3.org/1999/xlink">
	<desc>
			Created with Pixso.
	</desc>
	<defs>
		<clipPath id="clip31_1986">
			<rect id="map-pin" width="16.000000" height="16.000000" fill="white" fill-opacity="0"/>
		</clipPath>
	</defs>
	<rect id="map-pin" width="16.000000" height="16.000000" fill="#FFFFFF" fill-opacity="0"/>
	<g clip-path="url(#clip31_1986)">
		<path id="Vector" d="M8 15.3334C8 15.3334 2 11.3334 2 6.66669C2 5.07538 2.63281 3.54926 3.75781 2.42407C4.88281 1.29883 6.4082 0.666687 8 0.666687C9.5918 0.666687 11.1172 1.29883 12.2422 2.42407C13.3672 3.54926 14 5.07538 14 6.66669C14 11.3334 8 15.3334 8 15.3334Z" stroke="#11101C" stroke-opacity="1.000000" stroke-width="1.500000" stroke-linejoin="round"/>
		<path id="Vector" d="M8 8.66669C6.89453 8.66669 6 7.77124 6 6.66669C6 5.56213 6.89453 4.66669 8 4.66669C9.10547 4.66669 10 5.56213 10 6.66669C10 7.77124 9.10547 8.66669 8 8.66669Z" stroke="#11101C" stroke-opacity="1.000000" stroke-width="1.500000" stroke-linejoin="round"/>
	</g>
</svg>
